<svg width="1829" height="1051" viewBox="0 0 1829 1051" fill="none" xmlns="http://www.w3.org/2000/svg">
<rect x="208.629" y="949.606" width="20.8904" height="82.8616" fill="#A5A5A5" fill-opacity="0.35"/>
<line x1="219.101" y1="949.596" x2="219.224" y2="931.064" stroke="#A5A5A5" stroke-opacity="0.35" stroke-width="3"/>
<line x1="218.978" y1="1050.99" x2="219.101" y2="1032.46" stroke="#A5A5A5" stroke-opacity="0.35" stroke-width="3"/>
<rect x="156.671" y="888.453" width="20.8904" height="82.8616" fill="#A5A5A5" fill-opacity="0.35"/>
<line x1="167.143" y1="888.443" x2="167.267" y2="869.911" stroke="#A5A5A5" stroke-opacity="0.35" stroke-width="3"/>
<line x1="167.02" y1="989.837" x2="167.143" y2="971.304" stroke="#A5A5A5" stroke-opacity="0.35" stroke-width="3"/>
<rect x="260.586" y="848.212" width="20.8904" height="82.8616" fill="#A5A5A5" fill-opacity="0.35"/>
<line x1="271.058" y1="848.202" x2="271.181" y2="829.67" stroke="#A5A5A5" stroke-opacity="0.35" stroke-width="3"/>
<line x1="270.935" y1="949.596" x2="271.058" y2="931.064" stroke="#A5A5A5" stroke-opacity="0.35" stroke-width="3"/>
<rect x="306.281" y="746.818" width="20.8904" height="82.8616" fill="#A5A5A5" fill-opacity="0.35"/>
<line x1="316.753" y1="746.808" x2="316.876" y2="728.276" stroke="#A5A5A5" stroke-opacity="0.35" stroke-width="3"/>
<line x1="316.63" y1="848.202" x2="316.753" y2="829.67" stroke="#A5A5A5" stroke-opacity="0.35" stroke-width="3"/>
<rect x="407.587" y="753.155" width="20.8904" height="152.624" fill="#A5A5A5" fill-opacity="0.35"/>
<line y1="-1.5" x2="34.1353" y2="-1.5" transform="matrix(0.00360889 -0.999993 0.999925 0.0122429 419.56 753.155)" stroke="#A5A5A5" stroke-opacity="0.35" stroke-width="3"/>
<line y1="-1.5" x2="34.1353" y2="-1.5" transform="matrix(0.00360889 -0.999993 0.999925 0.0122429 419.436 939.914)" stroke="#A5A5A5" stroke-opacity="0.35" stroke-width="3"/>
<rect x="459.545" y="928.627" width="20.8904" height="41.9589" fill="#A5A5A5" fill-opacity="0.35"/>
<line y1="-1.5" x2="9.3851" y2="-1.5" transform="matrix(0.0131262 -0.999914 0.999994 0.00336601 471.517 928.627)" stroke="#A5A5A5" stroke-opacity="0.35" stroke-width="3"/>
<line y1="-1.5" x2="9.3851" y2="-1.5" transform="matrix(0.0131262 -0.999914 0.999994 0.00336601 471.394 979.97)" stroke="#A5A5A5" stroke-opacity="0.35" stroke-width="3"/>
<rect x="356.934" y="645.425" width="20.8904" height="82.8616" fill="#A5A5A5" fill-opacity="0.35"/>
<line x1="367.406" y1="645.415" x2="367.529" y2="626.882" stroke="#A5A5A5" stroke-opacity="0.35" stroke-width="3"/>
<line x1="367.283" y1="746.808" x2="367.406" y2="728.276" stroke="#A5A5A5" stroke-opacity="0.35" stroke-width="3"/>
<rect x="511.502" y="658.477" width="20.8904" height="237.918" fill="#A5A5A5" fill-opacity="0.35"/>
<line y1="-1.5" x2="53.2114" y2="-1.5" transform="matrix(0.00231511 -0.999997 0.999818 0.0190828 523.474 658.477)" stroke="#A5A5A5" stroke-opacity="0.35" stroke-width="3"/>
<line y1="-1.5" x2="53.2114" y2="-1.5" transform="matrix(0.00231511 -0.999997 0.999818 0.0190828 523.351 949.606)" stroke="#A5A5A5" stroke-opacity="0.35" stroke-width="3"/>
<rect x="590.521" y="583.117" width="20.8904" height="111.063" fill="#A5A5A5" fill-opacity="0.35"/>
<line y1="-1.5" x2="24.84" y2="-1.5" transform="matrix(0.00495935 -0.999988 0.99996 0.00890937 602.494 583.117)" stroke="#A5A5A5" stroke-opacity="0.35" stroke-width="3"/>
<line y1="-1.5" x2="24.84" y2="-1.5" transform="matrix(0.00495935 -0.999988 0.99996 0.00890937 602.37 719.02)" stroke="#A5A5A5" stroke-opacity="0.35" stroke-width="3"/>
<rect x="934.653" y="657.867" width="20.8904" height="82.8616" transform="rotate(180 934.653 657.867)" fill="#A5A5A5" fill-opacity="0.35"/>
<line x1="924.181" y1="657.877" x2="924.058" y2="676.409" stroke="#A5A5A5" stroke-opacity="0.35" stroke-width="3"/>
<line x1="924.304" y1="556.483" x2="924.181" y2="575.015" stroke="#A5A5A5" stroke-opacity="0.35" stroke-width="3"/>
<rect x="882.696" y="759.261" width="20.8904" height="82.8616" transform="rotate(180 882.696 759.261)" fill="#A5A5A5" fill-opacity="0.35"/>
<line x1="872.224" y1="759.27" x2="872.101" y2="777.803" stroke="#A5A5A5" stroke-opacity="0.35" stroke-width="3"/>
<line x1="872.347" y1="657.877" x2="872.224" y2="676.409" stroke="#A5A5A5" stroke-opacity="0.35" stroke-width="3"/>
<rect x="837.001" y="860.654" width="20.8904" height="82.8616" transform="rotate(180 837.001 860.654)" fill="#A5A5A5" fill-opacity="0.35"/>
<line x1="826.529" y1="860.664" x2="826.406" y2="879.197" stroke="#A5A5A5" stroke-opacity="0.35" stroke-width="3"/>
<line x1="826.652" y1="759.27" x2="826.529" y2="777.803" stroke="#A5A5A5" stroke-opacity="0.35" stroke-width="3"/>
<rect x="734.391" y="855.909" width="20.8904" height="152.624" transform="rotate(180 734.391 855.909)" fill="#A5A5A5" fill-opacity="0.35"/>
<line y1="-1.5" x2="34.1353" y2="-1.5" transform="matrix(-0.0036088 0.999993 -0.999925 -0.0122428 722.419 855.909)" stroke="#A5A5A5" stroke-opacity="0.35" stroke-width="3"/>
<line y1="-1.5" x2="34.1353" y2="-1.5" transform="matrix(-0.0036088 0.999993 -0.999925 -0.0122428 722.542 669.15)" stroke="#A5A5A5" stroke-opacity="0.35" stroke-width="3"/>
<rect x="688.696" y="680.651" width="20.8904" height="41.9589" transform="rotate(180 688.696 680.651)" fill="#A5A5A5" fill-opacity="0.35"/>
<line y1="-1.5" x2="9.3851" y2="-1.5" transform="matrix(-0.0131261 0.999914 -0.999994 -0.00336593 676.724 680.651)" stroke="#A5A5A5" stroke-opacity="0.35" stroke-width="3"/>
<line y1="-1.5" x2="9.3851" y2="-1.5" transform="matrix(-0.0131261 0.999914 -0.999994 -0.00336593 676.847 629.307)" stroke="#A5A5A5" stroke-opacity="0.35" stroke-width="3"/>
<rect x="786.348" y="962.048" width="20.8904" height="82.8616" transform="rotate(180 786.348 962.048)" fill="#A5A5A5" fill-opacity="0.35"/>
<line x1="775.876" y1="962.058" x2="775.753" y2="980.591" stroke="#A5A5A5" stroke-opacity="0.35" stroke-width="3"/>
<line x1="775.999" y1="860.664" x2="775.876" y2="879.197" stroke="#A5A5A5" stroke-opacity="0.35" stroke-width="3"/>
<rect x="1013.67" y="574.292" width="20.8904" height="237.918" transform="rotate(180 1013.67 574.292)" fill="#A5A5A5" fill-opacity="0.35"/>
<line y1="-1.5" x2="53.2114" y2="-1.5" transform="matrix(-0.00231503 0.999997 -0.999818 -0.0190827 1001.7 574.292)" stroke="#A5A5A5" stroke-opacity="0.35" stroke-width="3"/>
<line y1="-1.5" x2="53.2114" y2="-1.5" transform="matrix(-0.00231503 0.999997 -0.999818 -0.0190827 1001.82 283.163)" stroke="#A5A5A5" stroke-opacity="0.35" stroke-width="3"/>
<rect x="1088.99" y="391.906" width="20.8904" height="111.063" transform="rotate(180 1088.99 391.906)" fill="#A5A5A5" fill-opacity="0.35"/>
<line y1="-1.5" x2="24.84" y2="-1.5" transform="matrix(-0.00495926 0.999988 -0.99996 -0.00890928 1077.02 391.906)" stroke="#A5A5A5" stroke-opacity="0.35" stroke-width="3"/>
<line y1="-1.5" x2="24.84" y2="-1.5" transform="matrix(-0.00495926 0.999988 -0.99996 -0.00890928 1077.15 256.003)" stroke="#A5A5A5" stroke-opacity="0.35" stroke-width="3"/>
<rect x="1164.32" y="311.534" width="20.8904" height="111.063" transform="rotate(180 1164.32 311.534)" fill="#A5A5A5" fill-opacity="0.35"/>
<line y1="-1.5" x2="24.84" y2="-1.5" transform="matrix(-0.00495926 0.999988 -0.99996 -0.00890928 1152.34 311.534)" stroke="#A5A5A5" stroke-opacity="0.35" stroke-width="3"/>
<line y1="-1.5" x2="24.84" y2="-1.5" transform="matrix(-0.00495926 0.999988 -0.99996 -0.00890928 1152.47 175.631)" stroke="#A5A5A5" stroke-opacity="0.35" stroke-width="3"/>
<rect x="1211.62" y="472.277" width="20.8904" height="111.063" transform="rotate(180 1211.62 472.277)" fill="#A5A5A5" fill-opacity="0.35"/>
<line y1="-1.5" x2="24.84" y2="-1.5" transform="matrix(-0.00495926 0.999988 -0.99996 -0.00890928 1199.65 472.277)" stroke="#A5A5A5" stroke-opacity="0.35" stroke-width="3"/>
<line y1="-1.5" x2="24.84" y2="-1.5" transform="matrix(-0.00495926 0.999988 -0.99996 -0.00890928 1199.78 336.374)" stroke="#A5A5A5" stroke-opacity="0.35" stroke-width="3"/>
<rect x="1261.05" y="607.032" width="20.8904" height="111.063" transform="rotate(180 1261.05 607.032)" fill="#A5A5A5" fill-opacity="0.35"/>
<line y1="-1.5" x2="24.84" y2="-1.5" transform="matrix(-0.00495926 0.999988 -0.99996 -0.00890928 1249.07 607.032)" stroke="#A5A5A5" stroke-opacity="0.35" stroke-width="3"/>
<line y1="-1.5" x2="24.84" y2="-1.5" transform="matrix(-0.00495926 0.999988 -0.99996 -0.00890928 1249.2 471.129)" stroke="#A5A5A5" stroke-opacity="0.35" stroke-width="3"/>
<rect x="1310.47" y="458.709" width="20.8904" height="111.063" transform="rotate(180 1310.47 458.709)" fill="#A5A5A5" fill-opacity="0.35"/>
<line y1="-1.5" x2="24.84" y2="-1.5" transform="matrix(-0.00495926 0.999988 -0.99996 -0.00890928 1298.49 458.709)" stroke="#A5A5A5" stroke-opacity="0.35" stroke-width="3"/>
<line y1="-1.5" x2="24.84" y2="-1.5" transform="matrix(-0.00495926 0.999988 -0.99996 -0.00890928 1298.62 322.806)" stroke="#A5A5A5" stroke-opacity="0.35" stroke-width="3"/>
<rect x="1375.69" y="319.885" width="20.8904" height="195.163" transform="rotate(180 1375.69 319.885)" fill="#A5A5A5" fill-opacity="0.35"/>
<line y1="-1.5" x2="43.6492" y2="-1.5" transform="matrix(-0.00282219 0.999996 -0.999877 -0.0156544 1363.71 319.885)" stroke="#A5A5A5" stroke-opacity="0.35" stroke-width="3"/>
<line y1="-1.5" x2="43.6492" y2="-1.5" transform="matrix(-0.00282219 0.999996 -0.999877 -0.0156544 1363.84 81.0729)" stroke="#A5A5A5" stroke-opacity="0.35" stroke-width="3"/>
<rect x="1435.83" y="136.604" width="20.8904" height="111.063" transform="rotate(180 1435.83 136.604)" fill="#A5A5A5" fill-opacity="0.35"/>
<line y1="-1.5" x2="24.84" y2="-1.5" transform="matrix(-0.00495926 0.999988 -0.99996 -0.00890928 1423.86 136.604)" stroke="#A5A5A5" stroke-opacity="0.35" stroke-width="3"/>
<line y1="-1.5" x2="24.84" y2="-1.5" transform="matrix(-0.00495926 0.999988 -0.99996 -0.00890928 1423.98 0.701538)" stroke="#A5A5A5" stroke-opacity="0.35" stroke-width="3"/>
<rect x="104.714" y="806.782" width="20.8904" height="82.8616" fill="#A5A5A5" fill-opacity="0.35"/>
<line x1="115.186" y1="806.772" x2="115.309" y2="788.239" stroke="#A5A5A5" stroke-opacity="0.35" stroke-width="3"/>
<line x1="115.063" y1="908.165" x2="115.186" y2="889.633" stroke="#A5A5A5" stroke-opacity="0.35" stroke-width="3"/>
<rect x="52.7564" y="887.196" width="20.8904" height="82.8616" fill="#A5A5A5" fill-opacity="0.35"/>
<line x1="63.2285" y1="887.186" x2="63.3517" y2="868.654" stroke="#A5A5A5" stroke-opacity="0.35" stroke-width="3"/>
<line x1="63.1053" y1="988.58" x2="63.2285" y2="970.047" stroke="#A5A5A5" stroke-opacity="0.35" stroke-width="3"/>
<rect x="1475.08" y="152.278" width="20.8904" height="123.208" fill="#A5A5A5" fill-opacity="0.35"/>
<line y1="-1.5" x2="27.5563" y2="-1.5" transform="matrix(0.0044705 -0.99999 0.999951 0.00988354 1487.06 152.278)" stroke="#A5A5A5" stroke-opacity="0.35" stroke-width="3"/>
<line y1="-1.5" x2="27.5563" y2="-1.5" transform="matrix(0.0044705 -0.99999 0.999951 0.00988354 1486.93 303.042)" stroke="#A5A5A5" stroke-opacity="0.35" stroke-width="3"/>
<rect x="1522.39" y="310.719" width="20.8904" height="123.208" fill="#A5A5A5" fill-opacity="0.35"/>
<line y1="-1.5" x2="27.5563" y2="-1.5" transform="matrix(0.0044705 -0.99999 0.999951 0.00988354 1534.36 310.719)" stroke="#A5A5A5" stroke-opacity="0.35" stroke-width="3"/>
<line y1="-1.5" x2="27.5563" y2="-1.5" transform="matrix(0.0044705 -0.99999 0.999951 0.00988354 1534.24 461.483)" stroke="#A5A5A5" stroke-opacity="0.35" stroke-width="3"/>
<rect x="1597.71" y="124.722" width="20.8904" height="195.163" fill="#A5A5A5" fill-opacity="0.35"/>
<line y1="-1.5" x2="43.6492" y2="-1.5" transform="matrix(0.00282228 -0.999996 0.999877 0.0156545 1609.69 124.722)" stroke="#A5A5A5" stroke-opacity="0.35" stroke-width="3"/>
<line y1="-1.5" x2="43.6492" y2="-1.5" transform="matrix(0.00282228 -0.999996 0.999877 0.0156545 1609.56 363.534)" stroke="#A5A5A5" stroke-opacity="0.35" stroke-width="3"/>
<rect x="1718" y="131.216" width="20.8904" height="88.8301" fill="#A5A5A5" fill-opacity="0.35"/>
<line y1="-1.5" x2="19.8676" y2="-1.5" transform="matrix(0.00620057 -0.999981 0.999975 0.00712595 1729.97 131.216)" stroke="#A5A5A5" stroke-opacity="0.35" stroke-width="3"/>
<line y1="-1.5" x2="19.8676" y2="-1.5" transform="matrix(0.00620057 -0.999981 0.999975 0.00712595 1729.85 239.914)" stroke="#A5A5A5" stroke-opacity="0.35" stroke-width="3"/>
<rect x="1807.92" y="32.9886" width="20.8904" height="88.8301" fill="#A5A5A5" fill-opacity="0.35"/>
<line y1="-1.5" x2="19.8676" y2="-1.5" transform="matrix(0.00620057 -0.999981 0.999975 0.00712595 1819.89 32.9886)" stroke="#A5A5A5" stroke-opacity="0.35" stroke-width="3"/>
<line y1="-1.5" x2="19.8676" y2="-1.5" transform="matrix(0.00620057 -0.999981 0.999975 0.00712595 1819.77 141.686)" stroke="#A5A5A5" stroke-opacity="0.35" stroke-width="3"/>
<rect x="0.79895" y="974.025" width="20.8904" height="47.7611" fill="#A5A5A5" fill-opacity="0.35"/>
<line y1="-1.5" x2="10.6827" y2="-1.5" transform="matrix(0.0115318 -0.999933 0.999993 0.00383147 12.771 974.025)" stroke="#A5A5A5" stroke-opacity="0.35" stroke-width="3"/>
<line y1="-1.5" x2="10.6827" y2="-1.5" transform="matrix(0.0115318 -0.999933 0.999993 0.00383147 12.6478 1032.47)" stroke="#A5A5A5" stroke-opacity="0.35" stroke-width="3"/>
</svg>
